<?xml version="1.0" encoding="utf-8"?>
<!-- Generator: Adobe Illustrator 22.1.0, SVG Export Plug-In . SVG Version: 6.00 Build 0)  -->
<svg version="1.1" id="Layer_1" xmlns="http://www.w3.org/2000/svg" xmlns:xlink="http://www.w3.org/1999/xlink" x="0px" y="0px"
	 viewBox="0 0 400 400" style="enable-background:new 0 0 400 400;" xml:space="preserve">
<style type="text/css">
	.st0{fill:#5CB1FF;}
	.st1{fill:#5A9EFF;}
	.st2{fill:#DF2C2C;}
	.st3{fill:#FA5655;}
	.st4{fill:#FFCF9F;}
	.st5{fill:#FFE6CD;}
</style>
<g>
	<circle class="st0" cx="200" cy="200" r="200"/>
	<g>
		<path class="st1" d="M344.8,62l-20.7,13.8l-34.5-6.9L269,62l-27.6,6.9L220.8,62l13.8-27.6h27.6l27-13.5
			C310,31.3,328.8,45.2,344.8,62z"/>
		<path class="st1" d="M186.3,34.5l-6.9,20.7L158.7,62L138,96.5l-34.5,20.7l-48.3,6.9v20.7L69,158.6v27.6l-20.7-13.8l-20.7-13.8
			l-12-36.1c20.6-49.2,60.1-88.1,109.6-108l19.6,13.1L186.3,34.5z"/>
		<polygon class="st1" points="200.1,227.5 193.2,262 165.6,289.6 165.6,310.2 138,330.9 138,365.4 117.3,358.5 103.5,324 
			103.5,255.1 69.1,248.2 55.3,220.6 55.3,199.9 69.1,186.1 89.8,165.5 103.5,193 151.8,193 172.5,227.5 		"/>
		<path class="st1" d="M374.5,102.2c37.6,67.1,33.3,149.9-11,212.8l-18.6-18.6v-27.6l-13.8-27.6l-13.8-27.6V186l-20.7-13.8
			l-27.6,6.9l-48.3-20.7l-6.9-48.3l20.7-20.7h41.4l13.8,20.7l41.4,6.9l41.4-13.8L374.5,102.2z"/>
	</g>
</g>
<g>
	<path class="st2" d="M200,290l84.3-86.3c21-21.5,20.9-56.3-0.1-77.7c-21.1-21.4-55.2-21.3-76.2,0.2l-8,8.2l-8-8.2
		c-21-21.5-55.1-21.6-76.2-0.2s-21.1,56.2-0.1,77.7L200,290z"/>
	<path class="st3" d="M200,134.3l-8-8.2c-21-21.5-55.1-21.6-76.2-0.2s-21.1,56.2-0.1,77.7L200,290V134.3z"/>
</g>
<g>
	<path class="st4" d="M231,291.4l13.2-27.4c2.7-5.6,9.2-8.1,15-5.9h0.1c6.1,2.5,9,9.4,6.5,15.4l-2.7,6.6"/>
	<path class="st5" d="M279.5,304.9l-78.2,32.6c-7.9,3.3-16.6,3.6-24.7,1l-81.2-26.8c-4.2-1.4-8.7-1.2-12.7,0.6l-3.2,1.4l-18.4-42.6
		l-7.6-17.7l38-25.4c11.6-7.7,26.2-10,39.4-5.4c0.5,0.2,1.1,0.4,1.6,0.6l71.7,27.5c3.3,1.2,5.7,3.7,6.9,6.7c1.3,3,1.4,6.6,0,9.9
		c-2.6,5.9-9.3,8.8-15.4,6.8l-45.5-15.5c-2.8-1-5.7-0.8-8.3,0.3c-3.1,1.3-5.6,4-6.6,7.6c-1.5,5.8,1.7,11.8,7.3,13.8l52.1,18.2
		c4.6,1.6,9.7,1.6,14.3,0l59.7-20.9c7.3-2.6,15.4,1,18.4,8.1v0.1C290.6,293.1,287,301.7,279.5,304.9z"/>
	<path class="st4" d="M132.5,223.1c0,0-53.4,13.8-70,45.5c-0.5,0.9-1,1.7-1.4,2.5l-7.6-17.7l38-25.4c11.6-7.7,26.2-10,39.4-5.4
		C131.4,222.7,132,222.9,132.5,223.1z"/>
</g>
</svg>
